<svg width="129" height="37" viewBox="0 0 129 37" fill="none" xmlns="http://www.w3.org/2000/svg">
<path fill-rule="evenodd" clip-rule="evenodd" d="M26.831 4.17434C27.8895 4.17434 28.7475 3.31629 28.7475 2.25783C28.7475 1.19936 27.8895 0.341309 26.831 0.341309C25.7726 0.341309 24.9145 1.19936 24.9145 2.25783C24.9145 3.31629 25.7726 4.17434 26.831 4.17434ZM106.163 17.8222C106.163 11.7823 111.042 6.90387 117.082 6.90387C123.122 6.90387 128 11.7823 128 17.8222C128 23.8621 123.122 28.7406 117.082 28.7406C111.042 28.7406 106.163 23.8621 106.163 17.8222ZM109.706 17.8222C109.706 21.8876 113.016 25.1979 117.082 25.1979C121.147 25.1979 124.457 21.8876 124.457 17.8222C124.457 13.7569 121.147 10.4465 117.082 10.4465C113.016 10.4465 109.706 13.7569 109.706 17.8222ZM18.1779 9.74965C19.804 11.1435 20.9655 13.06 21.4882 15.2088C21.7205 16.08 21.8367 16.9511 21.8367 17.8223C21.8367 19.2161 21.6044 20.4938 21.1398 21.6553C20.5009 23.3976 19.3975 24.9656 18.0037 26.1272C17.6552 26.4176 17.3067 26.7079 16.9583 26.9402C16.9292 26.9693 16.9002 26.9838 16.8712 26.9983C16.8421 27.0128 16.8131 27.0274 16.784 27.0564C15.0998 28.1598 13.0672 28.7987 10.9183 28.7987C8.18876 28.7987 5.69148 27.7533 3.77496 26.1272V35.9421H0V7.25237H3.07804H3.65881H3.77496V9.57542C5.05264 8.47197 6.6207 7.65891 8.36299 7.25237C9.17605 7.07814 9.98912 6.96199 10.8603 6.96199C12.0799 6.96199 13.2414 7.1943 14.2868 7.54275H14.4029C15.7968 8.00736 17.0744 8.76236 18.1779 9.74965ZM8.01453 24.6753C8.88567 25.0237 9.87297 25.256 10.9183 25.256C14.9837 25.256 18.294 21.9457 18.3521 17.7642C18.3521 17.0092 18.236 16.1961 18.0037 15.4992C17.539 14.1635 16.726 12.9438 15.6225 12.0727C14.3448 11.0854 12.7187 10.4466 10.9764 10.4466C8.53722 10.4466 6.38839 11.6081 5.05264 13.4085C5.05264 13.4665 4.99456 13.5246 4.99456 13.5246C4.4138 14.3377 4.00726 15.2669 3.77496 16.3123C3.65881 16.835 3.60073 17.3576 3.60073 17.8803C3.60073 20.0872 4.58803 22.1199 6.15609 23.4557C6.21416 23.4847 6.25772 23.5283 6.30128 23.5718C6.34483 23.6154 6.38839 23.6589 6.44647 23.688C6.79493 24.0364 7.20146 24.2687 7.66607 24.501L8.01453 24.6753ZM24.9727 7.25238H28.7477V28.5083H24.9727V7.25238ZM99.4846 7.25237H99.3104H99.1362V9.57542C97.2197 7.94929 94.7224 6.96199 92.0509 6.96199C91.1797 6.96199 90.3667 7.07814 89.5536 7.25237C84.7333 8.4139 81.1325 12.7115 81.1325 17.8803C81.1325 18.9838 81.3068 20.0292 81.5972 21.0745C82.9329 25.5464 87.1144 28.7987 92.0509 28.7987C94.7805 28.7987 97.2197 27.8114 99.1362 26.1852C99.0781 28.3921 98.4974 30.0764 97.3939 31.1798C96.2324 32.3413 94.432 32.9221 91.9347 32.9221C90.4248 32.9221 88.9148 32.6898 87.4629 32.1671C86.011 31.7025 84.7914 31.0056 83.8041 30.1925L82.0037 33.0963C83.1071 34.0836 84.559 34.8967 86.3594 35.4194C88.1598 35.9421 90.0182 36.2324 92.0509 36.2324C95.6516 36.2324 98.3812 35.3613 100.24 33.619C102.04 31.8767 102.969 29.1471 102.969 25.4883V7.25237H99.4846ZM92.0509 25.256C87.9855 25.256 84.6752 21.9457 84.6752 17.8803C84.6752 17.3576 84.7333 16.835 84.8494 16.3123C85.5463 13.0019 88.5082 10.5046 92.0509 10.5046C95.3032 10.5046 98.0908 12.6535 99.0781 15.6154C99.3104 16.3123 99.4266 17.1253 99.4266 17.8803C99.4266 21.9457 96.1162 25.256 92.0509 25.256ZM74.4539 7.25237H74.1055H73.9312V9.57542C72.0147 7.94929 69.5174 6.96199 66.8459 6.96199C65.9748 6.96199 65.1617 7.07814 64.3486 7.25237C59.5283 8.4139 55.9276 12.7115 55.9276 17.8803C55.9276 18.9838 56.1018 20.0292 56.3922 21.0745C57.7279 25.5464 61.9094 28.7987 66.8459 28.7987C69.5755 28.7987 72.0147 27.8114 73.9312 26.1852C73.8732 28.3921 73.2924 30.0764 72.1889 31.1798C71.0274 32.3413 69.2271 32.9221 66.7298 32.9221C65.2198 32.9221 63.7098 32.6898 62.2579 32.1671C60.806 31.7025 59.5864 31.0056 58.5991 30.1925L56.7987 33.0963C57.9022 34.0836 59.3541 34.8967 61.1544 35.4194C62.9548 35.9421 64.8133 36.2324 66.8459 36.2324C70.4467 36.2324 73.1762 35.3613 75.0347 33.619C76.835 31.8767 77.7643 29.1471 77.7643 25.4883V7.25237H74.4539ZM66.7878 25.256C62.7225 25.256 59.4122 21.9457 59.4122 17.8803C59.4122 17.3576 59.4702 16.835 59.5864 16.3123C60.2833 13.0019 63.2452 10.5046 66.7878 10.5046C70.0401 10.5046 72.8278 12.6535 73.8151 15.6154C74.0474 16.3123 74.1635 17.1253 74.1635 17.8803C74.1635 21.9457 70.8532 25.256 66.7878 25.256ZM48.5518 8.23967C49.1326 8.53005 49.6552 8.93658 50.1199 9.4012C51.6879 10.9112 52.501 13.1762 52.4429 16.1961V23.9783V28.4502H48.6679V27.4048V23.0491V16.6027C48.6679 14.57 48.2033 13.06 47.216 12.0146C46.2287 10.9693 44.893 10.4466 43.0926 10.4466C40.1888 10.5627 37.6915 12.4792 36.6462 15.0346C36.4719 15.7896 36.3558 16.5446 36.3558 17.4157V19.7969V26.1852V28.5664H32.5808V7.31045H35.4846H36.1815H36.3558V9.6335C37.6334 8.47197 39.2015 7.65891 40.9438 7.25237C41.7569 7.07814 42.5699 6.96199 43.4411 6.96199C44.6607 6.96199 45.8222 7.1943 46.9257 7.54275C46.9547 7.54275 46.9837 7.55727 47.0128 7.57179C47.0418 7.58631 47.0708 7.60083 47.0999 7.60083C47.158 7.62987 47.2015 7.64439 47.2451 7.65891C47.2886 7.67342 47.3322 7.68794 47.3903 7.71698C47.7387 7.83314 48.0291 7.94929 48.3195 8.12352C48.3638 8.1457 48.3997 8.15941 48.4304 8.17112C48.48 8.19007 48.5159 8.20378 48.5518 8.23967ZM119.811 18.5191L117.082 23.2233L114.352 18.5191H119.811Z" fill="url(#paint0_linear)"/>
<path fill-rule="evenodd" clip-rule="evenodd" d="M26.831 4.17434C27.8895 4.17434 28.7475 3.31629 28.7475 2.25783C28.7475 1.19936 27.8895 0.341309 26.831 0.341309C25.7726 0.341309 24.9145 1.19936 24.9145 2.25783C24.9145 3.31629 25.7726 4.17434 26.831 4.17434ZM106.163 17.8222C106.163 11.7823 111.042 6.90387 117.082 6.90387C123.122 6.90387 128 11.7823 128 17.8222C128 23.8621 123.122 28.7406 117.082 28.7406C111.042 28.7406 106.163 23.8621 106.163 17.8222ZM109.706 17.8222C109.706 21.8876 113.016 25.1979 117.082 25.1979C121.147 25.1979 124.457 21.8876 124.457 17.8222C124.457 13.7569 121.147 10.4465 117.082 10.4465C113.016 10.4465 109.706 13.7569 109.706 17.8222ZM18.1779 9.74965C19.804 11.1435 20.9655 13.06 21.4882 15.2088C21.7205 16.08 21.8367 16.9511 21.8367 17.8223C21.8367 19.2161 21.6044 20.4938 21.1398 21.6553C20.5009 23.3976 19.3975 24.9656 18.0037 26.1272C17.6552 26.4176 17.3067 26.7079 16.9583 26.9402C16.9292 26.9693 16.9002 26.9838 16.8712 26.9983C16.8421 27.0128 16.8131 27.0274 16.784 27.0564C15.0998 28.1598 13.0672 28.7987 10.9183 28.7987C8.18876 28.7987 5.69148 27.7533 3.77496 26.1272V35.9421H0V7.25237H3.07804H3.65881H3.77496V9.57542C5.05264 8.47197 6.6207 7.65891 8.36299 7.25237C9.17605 7.07814 9.98912 6.96199 10.8603 6.96199C12.0799 6.96199 13.2414 7.1943 14.2868 7.54275H14.4029C15.7968 8.00736 17.0744 8.76236 18.1779 9.74965ZM8.01453 24.6753C8.88567 25.0237 9.87297 25.256 10.9183 25.256C14.9837 25.256 18.294 21.9457 18.3521 17.7642C18.3521 17.0092 18.236 16.1961 18.0037 15.4992C17.539 14.1635 16.726 12.9438 15.6225 12.0727C14.3448 11.0854 12.7187 10.4466 10.9764 10.4466C8.53722 10.4466 6.38839 11.6081 5.05264 13.4085C5.05264 13.4665 4.99456 13.5246 4.99456 13.5246C4.4138 14.3377 4.00726 15.2669 3.77496 16.3123C3.65881 16.835 3.60073 17.3576 3.60073 17.8803C3.60073 20.0872 4.58803 22.1199 6.15609 23.4557C6.21416 23.4847 6.25772 23.5283 6.30128 23.5718C6.34483 23.6154 6.38839 23.6589 6.44647 23.688C6.79493 24.0364 7.20146 24.2687 7.66607 24.501L8.01453 24.6753ZM24.9727 7.25238H28.7477V28.5083H24.9727V7.25238ZM99.4846 7.25237H99.3104H99.1362V9.57542C97.2197 7.94929 94.7224 6.96199 92.0509 6.96199C91.1797 6.96199 90.3667 7.07814 89.5536 7.25237C84.7333 8.4139 81.1325 12.7115 81.1325 17.8803C81.1325 18.9838 81.3068 20.0292 81.5972 21.0745C82.9329 25.5464 87.1144 28.7987 92.0509 28.7987C94.7805 28.7987 97.2197 27.8114 99.1362 26.1852C99.0781 28.3921 98.4974 30.0764 97.3939 31.1798C96.2324 32.3413 94.432 32.9221 91.9347 32.9221C90.4248 32.9221 88.9148 32.6898 87.4629 32.1671C86.011 31.7025 84.7914 31.0056 83.8041 30.1925L82.0037 33.0963C83.1071 34.0836 84.559 34.8967 86.3594 35.4194C88.1598 35.9421 90.0182 36.2324 92.0509 36.2324C95.6516 36.2324 98.3812 35.3613 100.24 33.619C102.04 31.8767 102.969 29.1471 102.969 25.4883V7.25237H99.4846ZM92.0509 25.256C87.9855 25.256 84.6752 21.9457 84.6752 17.8803C84.6752 17.3576 84.7333 16.835 84.8494 16.3123C85.5463 13.0019 88.5082 10.5046 92.0509 10.5046C95.3032 10.5046 98.0908 12.6535 99.0781 15.6154C99.3104 16.3123 99.4266 17.1253 99.4266 17.8803C99.4266 21.9457 96.1162 25.256 92.0509 25.256ZM74.4539 7.25237H74.1055H73.9312V9.57542C72.0147 7.94929 69.5174 6.96199 66.8459 6.96199C65.9748 6.96199 65.1617 7.07814 64.3486 7.25237C59.5283 8.4139 55.9276 12.7115 55.9276 17.8803C55.9276 18.9838 56.1018 20.0292 56.3922 21.0745C57.7279 25.5464 61.9094 28.7987 66.8459 28.7987C69.5755 28.7987 72.0147 27.8114 73.9312 26.1852C73.8732 28.3921 73.2924 30.0764 72.1889 31.1798C71.0274 32.3413 69.2271 32.9221 66.7298 32.9221C65.2198 32.9221 63.7098 32.6898 62.2579 32.1671C60.806 31.7025 59.5864 31.0056 58.5991 30.1925L56.7987 33.0963C57.9022 34.0836 59.3541 34.8967 61.1544 35.4194C62.9548 35.9421 64.8133 36.2324 66.8459 36.2324C70.4467 36.2324 73.1762 35.3613 75.0347 33.619C76.835 31.8767 77.7643 29.1471 77.7643 25.4883V7.25237H74.4539ZM66.7878 25.256C62.7225 25.256 59.4122 21.9457 59.4122 17.8803C59.4122 17.3576 59.4702 16.835 59.5864 16.3123C60.2833 13.0019 63.2452 10.5046 66.7878 10.5046C70.0401 10.5046 72.8278 12.6535 73.8151 15.6154C74.0474 16.3123 74.1635 17.1253 74.1635 17.8803C74.1635 21.9457 70.8532 25.256 66.7878 25.256ZM48.5518 8.23967C49.1326 8.53005 49.6552 8.93658 50.1199 9.4012C51.6879 10.9112 52.501 13.1762 52.4429 16.1961V23.9783V28.4502H48.6679V27.4048V23.0491V16.6027C48.6679 14.57 48.2033 13.06 47.216 12.0146C46.2287 10.9693 44.893 10.4466 43.0926 10.4466C40.1888 10.5627 37.6915 12.4792 36.6462 15.0346C36.4719 15.7896 36.3558 16.5446 36.3558 17.4157V19.7969V26.1852V28.5664H32.5808V7.31045H35.4846H36.1815H36.3558V9.6335C37.6334 8.47197 39.2015 7.65891 40.9438 7.25237C41.7569 7.07814 42.5699 6.96199 43.4411 6.96199C44.6607 6.96199 45.8222 7.1943 46.9257 7.54275C46.9547 7.54275 46.9837 7.55727 47.0128 7.57179C47.0418 7.58631 47.0708 7.60083 47.0999 7.60083C47.158 7.62987 47.2015 7.64439 47.2451 7.65891C47.2886 7.67342 47.3322 7.68794 47.3903 7.71698C47.7387 7.83314 48.0291 7.94929 48.3195 8.12352C48.3638 8.1457 48.3997 8.15941 48.4304 8.17112C48.48 8.19007 48.5159 8.20378 48.5518 8.23967ZM119.811 18.5191L117.082 23.2233L114.352 18.5191H119.811Z" fill="white"/>
<defs>
<linearGradient id="paint0_linear" x1="-18.6667" y1="-12.6465" x2="111.111" y2="33.5758" gradientUnits="userSpaceOnUse">
<stop stop-color="#BC0B9C"/>
<stop offset="1" stop-color="#F80759"/>
</linearGradient>
</defs>
</svg>
