<svg width="42" height="42" viewBox="0 0 42 42" fill="none" xmlns="http://www.w3.org/2000/svg">
<circle cx="21" cy="21" r="20" fill="white"/>
<path d="M21.1275 21.6255C25.4424 21.6255 28.9403 18.1276 28.9403 13.8128C28.9403 9.49789 25.4424 6 21.1275 6C16.8126 6 13.3148 9.49789 13.3148 13.8128C13.3148 18.1276 16.8126 21.6255 21.1275 21.6255Z" fill="#F80759"/>
<path d="M31.4937 27.0227C33.6091 28.3799 33.8192 31.4057 31.9025 33.0315C31.8804 33.0503 31.8583 33.0689 31.8361 33.0875C28.9404 35.5209 25.2052 36.9849 21.1277 36.9849C17.0099 36.9849 13.2423 35.4913 10.3347 33.0157C10.3233 33.006 10.312 32.9964 10.3007 32.9867C8.395 31.3572 8.62044 28.3357 10.7351 26.9887C13.7261 25.0834 17.278 23.98 21.0872 23.98C24.9212 23.98 28.4917 25.0966 31.4937 27.0227V27.0227Z" fill="#F80759"/>
</svg>
