<svg width="198" height="56" viewBox="0 0 198 56" fill="none" xmlns="http://www.w3.org/2000/svg">
<path fill-rule="evenodd" clip-rule="evenodd" d="M41.5043 5.92916C43.1416 5.92916 44.4689 4.60186 44.4689 2.96455C44.4689 1.32724 43.1416 -6.10352e-05 41.5043 -6.10352e-05C39.867 -6.10352e-05 38.5397 1.32724 38.5397 2.96455C38.5397 4.60186 39.867 5.92916 41.5043 5.92916ZM164.221 27.0406C164.221 17.6976 171.768 10.1513 181.111 10.1513C190.454 10.1513 198 17.6976 198 27.0406C198 36.3836 190.454 43.9299 181.111 43.9299C171.768 43.9299 164.221 36.3836 164.221 27.0406ZM169.701 27.0406C169.701 33.3292 174.822 38.4499 181.111 38.4499C187.399 38.4499 192.52 33.3292 192.52 27.0406C192.52 20.752 187.399 15.6313 181.111 15.6313C174.822 15.6313 169.701 20.752 169.701 27.0406ZM28.1189 14.5533C30.6343 16.7094 32.431 19.674 33.2396 22.998C33.5989 24.3455 33.7786 25.6931 33.7786 27.0406C33.7786 29.1967 33.4192 31.1731 32.7005 32.9698C31.7123 35.6649 30.0054 38.0905 27.8494 39.8872C27.3103 40.3364 26.7713 40.7856 26.2323 41.145C26.1874 41.1899 26.1425 41.2123 26.0975 41.2348C26.0526 41.2573 26.0077 41.2797 25.9628 41.3246C23.3575 43.0315 20.2132 44.0197 16.8893 44.0197C12.667 44.0197 8.80399 42.4027 5.83938 39.8872V55.0696H0V10.6903H4.76134H5.65971H5.83938V14.2838C7.81579 12.5769 10.2414 11.3192 12.9365 10.6903C14.1942 10.4208 15.4519 10.2412 16.7995 10.2412C18.686 10.2412 20.4828 10.6005 22.0998 11.1395H22.2795C24.4356 11.8582 26.412 13.0261 28.1189 14.5533ZM12.3975 37.6413C13.745 38.1804 15.2722 38.5397 16.8893 38.5397C23.1779 38.5397 28.2985 33.419 28.3884 26.9508C28.3884 25.7829 28.2087 24.5252 27.8494 23.4471C27.1307 21.3809 25.873 19.4943 24.1661 18.1468C22.1897 16.6196 19.6742 15.6314 16.9791 15.6314C13.206 15.6314 9.88203 17.4281 7.81579 20.213C7.81579 20.3029 7.72595 20.3927 7.72595 20.3927C6.82759 21.6504 6.19873 23.0878 5.83938 24.7049C5.65971 25.5134 5.56987 26.3219 5.56987 27.1304C5.56987 30.5442 7.0971 33.6885 9.52269 35.7548C9.61252 35.7997 9.6799 35.8671 9.74728 35.9344L9.74729 35.9345C9.81467 36.0018 9.88204 36.0692 9.97187 36.1141C10.5109 36.6531 11.1397 37.0125 11.8584 37.3718L12.3975 37.6413ZM38.6296 10.6904H44.469V43.5706H38.6296V10.6904ZM153.89 10.6903H153.621H153.351V14.2838C150.387 11.7684 146.524 10.2412 142.391 10.2412C141.044 10.2412 139.786 10.4208 138.528 10.6903C131.072 12.4871 125.502 19.135 125.502 27.1304C125.502 28.8373 125.771 30.4544 126.221 32.0715C128.287 38.9889 134.755 44.0197 142.391 44.0197C146.613 44.0197 150.387 42.4925 153.351 39.9771C153.261 43.3909 152.363 45.9961 150.656 47.703C148.859 49.4998 146.074 50.3981 142.211 50.3981C139.876 50.3981 137.54 50.0388 135.294 49.2303C133.048 48.5116 131.162 47.4335 129.634 46.1758L126.849 50.6676C128.556 52.1949 130.802 53.4526 133.587 54.2611C136.372 55.0696 139.247 55.5188 142.391 55.5188C147.961 55.5188 152.183 54.1713 155.058 51.4762C157.843 48.7811 159.28 44.5588 159.28 38.899V10.6903H153.89ZM142.391 38.5397C136.103 38.5397 130.982 33.419 130.982 27.1304C130.982 26.3219 131.072 25.5134 131.251 24.7049C132.329 19.5842 136.911 15.7212 142.391 15.7212C147.422 15.7212 151.734 19.0451 153.261 23.6268C153.621 24.7049 153.8 25.9626 153.8 27.1304C153.8 33.419 148.68 38.5397 142.391 38.5397ZM115.171 10.6903H114.632H114.362V14.2838C111.398 11.7684 107.535 10.2412 103.402 10.2412C102.055 10.2412 100.797 10.4208 99.5393 10.6903C92.0828 12.4871 86.513 19.135 86.513 27.1304C86.513 28.8373 86.7825 30.4544 87.2317 32.0715C89.2979 38.9889 95.7661 44.0197 103.402 44.0197C107.625 44.0197 111.398 42.4925 114.362 39.9771C114.272 43.3909 113.374 45.9961 111.667 47.703C109.87 49.4998 107.086 50.3981 103.223 50.3981C100.887 50.3981 98.5511 50.0388 96.3052 49.2303C94.0592 48.5116 92.1727 47.4335 90.6454 46.1758L87.8605 50.6676C89.5674 52.1949 91.8133 53.4526 94.5983 54.2611C97.3832 55.0696 100.258 55.5188 103.402 55.5188C108.972 55.5188 113.194 54.1713 116.069 51.4762C118.854 48.7811 120.292 44.5588 120.292 38.899V10.6903H115.171ZM103.312 38.5397C97.0238 38.5397 91.9032 33.419 91.9032 27.1304C91.9032 26.3219 91.993 25.5134 92.1727 24.7049C93.2507 19.5842 97.8324 15.7212 103.312 15.7212C108.343 15.7212 112.655 19.0451 114.183 23.6268C114.542 24.7049 114.722 25.9626 114.722 27.1304C114.722 33.419 109.601 38.5397 103.312 38.5397ZM75.1034 12.2176C76.0018 12.6667 76.8103 13.2956 77.529 14.0143C79.9546 16.35 81.2123 19.8537 81.1225 24.5252V36.5633V43.4807H75.2831V41.8637V35.1259V25.154C75.2831 22.0098 74.5644 19.674 73.0372 18.0569C71.5099 16.4399 69.4437 15.6314 66.6588 15.6314C62.1669 15.811 58.304 18.7756 56.6869 22.7284C56.4174 23.8963 56.2377 25.0642 56.2377 26.4118V30.0951V39.9771V43.6604H50.3983V10.7802H54.8902H55.9682H56.2377V14.3736C58.2141 12.5769 60.6397 11.3192 63.3348 10.6903C64.5925 10.4208 65.8502 10.2412 67.1978 10.2412C69.0844 10.2412 70.8811 10.6005 72.588 11.1395C72.6329 11.1395 72.6778 11.162 72.7227 11.1844C72.7677 11.2069 72.8126 11.2294 72.8575 11.2294C72.9473 11.2743 73.0147 11.2967 73.0821 11.3192C73.1495 11.3417 73.2168 11.3641 73.3067 11.409C73.8457 11.5887 74.2949 11.7684 74.7441 12.0379C74.8127 12.0722 74.8682 12.0934 74.9156 12.1115C74.9924 12.1408 75.0479 12.162 75.1034 12.2176ZM185.333 28.1186L181.111 35.3954L176.888 28.1186H185.333Z" fill="url(#paint0_linear)"/>
<defs>
<linearGradient id="paint0_linear" x1="-28.875" y1="-20.0905" x2="171.875" y2="51.4098" gradientUnits="userSpaceOnUse">
<stop stop-color="#BC0B9C"/>
<stop offset="1" stop-color="#F80759"/>
</linearGradient>
</defs>
</svg>
